<?xml version="1.0" encoding="utf-8"?>
<!-- Generator: Adobe Illustrator 22.0.1, SVG Export Plug-In . SVG Version: 6.00 Build 0)  -->
<svg version="1.1" id="Layer_1" xmlns="http://www.w3.org/2000/svg" xmlns:xlink="http://www.w3.org/1999/xlink" x="0px" y="0px"
	 viewBox="0 0 200 200" style="enable-background:new 0 0 200 200;" xml:space="preserve">
<style type="text/css">
	.st0{fill:#25ABD7;}
	.st1{opacity:0.8;fill:#FFFFFF;enable-background:new    ;}
	.st2{fill:#FFFFFF;}
</style>
<title>icon-three-sixty</title>
<path class="st0" d="M100,0c55.2,0,100,44.8,100,100s-44.8,100-100,100S0,155.2,0,100S44.8,0,100,0z"/>
<path class="st1" d="M100,31.8c14.8,0,29.2,4.8,41,13.7l-7.4,7.4c-0.9,0.9-0.9,2.5,0,3.4c0.4,0.4,0.9,0.6,1.5,0.7l20.6,2h0.2
	c1.3,0,2.4-1.1,2.4-2.4c0-0.1,0-0.2,0-0.2l-2-20.6c-0.1-1.3-1.3-2.3-2.6-2.2c-0.6,0.1-1.1,0.3-1.5,0.7l-6,6
	C113.3,14.7,65.9,20.7,40.3,53.6C30.1,66.9,24.5,83.2,24.5,100c0,2.4,0.1,4.9,0.4,7.2c0.2,1.8,1.7,3.3,3.6,3.3h0.4
	c2-0.2,3.4-2,3.2-4c0,0,0,0,0,0c-0.2-2.1-0.3-4.3-0.3-6.5C31.8,62.3,62.3,31.8,100,31.8z M175.1,92.8c-0.3-2-2.1-3.4-4.1-3.1
	c-1.9,0.3-3.2,1.9-3.1,3.8c0.2,2.1,0.3,4.3,0.3,6.5c0,37.7-30.5,68.3-68.2,68.3c-15.3,0-30.1-5.1-42.1-14.5l7-7
	c0.9-0.9,0.9-2.5,0-3.4c-0.4-0.4-0.9-0.6-1.5-0.7l-20.6-2c-1.3-0.1-2.5,0.8-2.6,2.2c0,0.2,0,0.3,0,0.5l2,20.6
	c0.1,1.3,1.3,2.3,2.6,2.2c0.6-0.1,1.1-0.3,1.5-0.7l6.5-6.5c32.5,26.1,80,20.9,106.1-11.7c10.7-13.4,16.6-30,16.6-47.2
	C175.5,97.6,175.4,95.1,175.1,92.8L175.1,92.8z"/>
<path class="st2" d="M81.7,86.5c0.1,2.7-0.7,5.3-2.2,7.5c-1.5,2.1-3.7,3.6-6.3,4.2v0.3c5.6,0.4,9.9,5.4,9.4,11c0,0,0,0.1,0,0.1
	c0,4.4-1.4,7.9-4.1,10.5c-2.7,2.6-6.5,3.9-11.2,3.9c-3.7,0.1-7.3-0.7-10.6-2.3v-7.9c1.5,0.9,3,1.6,4.7,2.1c1.6,0.5,3.2,0.7,4.8,0.8
	c2.1,0.2,4.1-0.5,5.7-1.7c1.3-1.2,1.9-3,1.9-5.5c0-4.8-2.9-7.1-8.8-7.1h-2.7v-6.6H65c2.1,0.1,4.3-0.5,5.9-1.8
	c1.5-1.4,2.2-3.4,2.1-5.4c0.1-1.5-0.4-3.1-1.3-4.3c-1-1-2.3-1.5-3.7-1.5c-2.7,0.1-5.3,1.2-7.2,3.1l-4-5.9c3.2-3.2,7.6-5,12.1-4.8
	c4,0,7.1,1,9.4,3C80.7,80.3,81.9,83.4,81.7,86.5z M87.3,103.2c0-9.7,1.5-16.8,4.5-21.3c3-4.5,7.6-6.7,13.8-6.7c1,0,2,0.1,2.9,0.2
	c0.7,0.1,1.5,0.2,2.2,0.4v7.3c-1.5-0.3-2.9-0.5-4.4-0.5c-2.1-0.1-4.3,0.5-6.1,1.6c-1.7,1.2-2.9,2.9-3.6,4.8c-1,2.9-1.5,6-1.5,9.1
	h0.4c0.6-1.6,1.7-3.1,3.1-4.1c1.3-0.9,3-1.4,4.6-1.4c3-0.1,5.8,1.4,7.5,3.9c1.8,2.6,2.7,6.3,2.7,11.1c0,5-1.2,9-3.5,12
	c-2.3,2.9-5.8,4.6-9.5,4.4c-4,0.2-7.7-1.9-9.7-5.3C88.4,115.3,87.3,110.1,87.3,103.2z M100.4,116.6c1.4,0,2.6-0.9,3.1-2.2
	c0.8-1.4,1.2-3.7,1.2-6.7c0.1-2-0.3-4-1.1-5.8c-0.5-1.3-1.8-2.2-3.2-2.1c-1.3,0-2.5,0.8-3.1,2c-0.9,1.5-1.3,3.3-1.2,5
	c-0.1,2.5,0.3,5,1.1,7.3C98,115.8,99,116.6,100.4,116.6L100.4,116.6z M143.6,99.6c0,8.6-1,14.8-3.1,18.7c-2.1,3.8-5.4,5.8-10,5.8
	c-4.6,0-7.9-1.9-9.9-5.8c-2-3.9-3-10.1-3-18.7c0-8.6,1.1-14.8,3.2-18.7c1.8-3.7,5.7-6,9.9-5.8c4.6,0,7.9,1.9,9.9,5.7
	C142.6,84.6,143.6,90.9,143.6,99.6z M126.4,99.6c0,6.7,0.3,11.2,0.9,13.5c0.6,2.3,1.7,3.5,3.3,3.5c1.1,0,2-0.6,2.5-1.5
	c0.8-1.6,1.2-3.3,1.3-5c0.3-3.5,0.4-7,0.4-10.5c0-6.6-0.3-11-0.9-13.4c-0.6-2.4-1.7-3.6-3.3-3.6c-1.6,0-2.7,1.2-3.3,3.6
	C126.6,88.5,126.4,93,126.4,99.6z"/>
</svg>
