<?xml version="1.0" encoding="utf-8"?>
<!-- Generator: Adobe Illustrator 22.0.1, SVG Export Plug-In . SVG Version: 6.00 Build 0)  -->
<svg version="1.1" id="Layer_1" xmlns="http://www.w3.org/2000/svg" xmlns:xlink="http://www.w3.org/1999/xlink" x="0px" y="0px"
	 viewBox="0 0 26.7 35.6" style="enable-background:new 0 0 26.7 35.6;" xml:space="preserve">
<style type="text/css">
	.st0{fill:#00205C;}
	.st1{fill:#FFA400;}
</style>
<g>
	<path class="st0" d="M26.7,13.4c0,7.4-13.3,22.2-13.3,22.2S0,20.7,0,13.4S6,0,13.4,0S26.7,6,26.7,13.4z"/>
	<g>
		<path class="st1" d="M10.5,20.4c0,0,2.4-3.6,2.6-3.9c0.3-0.4,0.3-1.1,0-1.5C13,14.8,9.4,9.2,9.4,9.2c-0.3-0.6-0.2-1,0-1.3
			c0.4-0.5,1-1.4,1-1.4s4.3,6.8,4.5,7.1c0.5,0.8,0.3,1.5,0,2.2c-0.3,0.5-3.1,4.7-3.1,4.7h-1.3V20.4z"/>
		<path class="st1" d="M9.7,20.8c0,0,2.8-4.1,3-4.4c0.2-0.4,0.2-1,0-1.3c-0.1-0.2-4-6.2-4-6.2s-0.7,1-0.9,1.3
			c-0.2,0.3-0.3,0.7,0,1.3c0,0,2.8,4.3,2.9,4.5c0.2,0.4,0.2,1,0,1.4c-0.2,0.3-3,4.5-3,4.5s7.4,0,8.2,0s1.3-0.3,1.7-0.9
			c0.3-0.5,1.7-2.5,1.9-2.8c0.2-0.3,0.6-0.5,0.8-0.5c0.2,0,0.6,0,0.6,0l-1.3-1.8c0,0-1.6,0-2,0s-0.8,0.3-1.1,0.7
			c-0.2,0.3-1.6,2.3-1.8,2.7c-0.1,0.2-0.3,0.2-0.4,0.2s-0.2,0-0.3,0c0.1-0.2,2.4-3.5,2.8-4.2c0.5-0.9,0.7-2.1,0-3.2
			c-0.2-0.4-5-7.9-5-7.9S11.3,5,11.1,5.4c-0.2,0.3-0.3,0.7,0,1.3c0,0,4,6.4,4.2,6.6c0.5,0.7,0.4,1.7,0,2.4c-0.3,0.5-3.1,4.7-3.1,4.7
			s2,0,2.2,0c0.8,0,1-0.3,1.2-0.5s1.4-2,1.5-2.2S17.6,17,18,17c0.3,0,1.4,0,1.4,0l0,0c-0.3,0.1-0.6,0.2-0.8,0.5
			c-0.2,0.3-1.7,2.4-1.8,2.7c-0.2,0.3-0.5,0.6-1.1,0.6C15.4,20.8,9.7,20.8,9.7,20.8L9.7,20.8z"/>
	</g>
</g>
</svg>
