<?xml version="1.0" encoding="utf-8"?>
<!-- Generator: Adobe Illustrator 22.0.1, SVG Export Plug-In . SVG Version: 6.00 Build 0)  -->
<svg version="1.1"
	 id="svg2" inkscape:version="0.91 r13725" sodipodi:docname="Singapore_Airlines2.svg" xmlns:cc="http://creativecommons.org/ns#" xmlns:dc="http://purl.org/dc/elements/1.1/" xmlns:inkscape="http://www.inkscape.org/namespaces/inkscape" xmlns:rdf="http://www.w3.org/1999/02/22-rdf-syntax-ns#" xmlns:sodipodi="http://sodipodi.sourceforge.net/DTD/sodipodi-0.dtd" xmlns:svg="http://www.w3.org/2000/svg"
	 xmlns="http://www.w3.org/2000/svg" xmlns:xlink="http://www.w3.org/1999/xlink" x="0px" y="0px" viewBox="0 0 350 128.4"
	 style="enable-background:new 0 0 350 128.4;" xml:space="preserve">
<style type="text/css">
	.st0{fill:#FCB130;}
	.st1{fill:#FFFFFF;}
</style>
<sodipodi:namedview  bordercolor="#666666" borderopacity="1" gridtolerance="10" guidetolerance="10" id="namedview4166" inkscape:current-layer="g12" inkscape:cx="147.77182" inkscape:cy="102.55966" inkscape:pageopacity="0" inkscape:pageshadow="2" inkscape:window-height="705" inkscape:window-maximized="1" inkscape:window-width="1366" inkscape:window-x="-8" inkscape:window-y="-8" inkscape:zoom="2.072165" objecttolerance="10" pagecolor="#ffffff" showgrid="false">
	</sodipodi:namedview>
<g id="g10" transform="matrix(1.3333333,0,0,-1.3333333,0,128.38101)">
	<g id="g12" transform="scale(0.1,0.1)">
		<g id="g5458" transform="matrix(1.4936131,0,0,1.4936131,-190.36118,-642.31656)">
			<path id="path50" inkscape:connector-curvature="0" class="st0" d="M127.5,467.7h1216.7L1320,430H127.4L127.5,467.7"/>
			<g id="g4758">
				<path id="path52" inkscape:connector-curvature="0" class="st0" d="M1565.7,484.8H1521l90.3,142.5c0,0,13.5,29.5-4.2,60.8
					l-125.9,208.5c0,0-11,19.4,0,37.9l37.2,55.8l147.7-241.4c0,0,38.1-50.6-3.3-113.2L1565.7,484.8"/>
				<path id="path54" inkscape:connector-curvature="0" class="st0" d="M1673.7,528.5l54.9,83.6c0,0,16,34.5,57.4,34.5h58.3
					l40.6-64.1c0,0-32.1,3.3-46.4-19.6l-59.9-90.3c0,0-19.6-42.2-71.8-42.2h-282.2L1532,595.3c0,0,15.2,19.3-6,51.4l-95.5,153.6
					c0,0-23.5,22.7,0.8,61.6l27.9,42.2L1592,688.9c0,0,23.5-29.6,0-64.9l-99.7-155.4h210.2c0,0,23.7-4.4,44.1,26l52.2,80.3
					c0,0,11.9,27.1,38.1,38.1h-42.2c0,0-22.1-0.8-38.9-27.1l-46.4-71.8c0,0-16.9-30.4-54.1-30.4h-73.4l88.6,137.5
					c0,0,48.3,63.5,14.4,121.7l-146.9,243c0,0-11,21,1.7,40.6l32,48.1l167.3-269.5c0,0,24.6-40.4,24.6-71.6
					c0-31.2-19.6-66.6-30.4-84.5l-73.7-114.9c0,0-8.3-11-2.5-15.2C1662.9,514.9,1668.7,522.4,1673.7,528.5"/>
			</g>
			<g id="g5439">
				<path id="path16" inkscape:connector-curvature="0" class="st1" d="M740.1,645.4h26v-103h63.5v-22.1h-89.5L740.1,645.4"/>
				<path id="path18" inkscape:connector-curvature="0" class="st1" d="M849.5,520.4h25.8v125.1h-25.8V520.4z"/>
				<path id="path20" inkscape:connector-curvature="0" class="st1" d="M532.8,520.4h25.6v125.1h-25.6V520.4z"/>
				<path id="path24" inkscape:connector-curvature="0" class="st1" d="M1059.9,645.4h98v-20.6h-72v-30.6h61.2v-22.7h-61.2v-30.4h72
					v-20.8h-98V645.4"/>
				<path id="path26" inkscape:connector-curvature="0" class="st1" d="M1197.8,813.5h98v-20.6h-72v-30.4h61.4v-22.7h-61.4v-30.4h72
					v-20.6h-98V813.5"/>
				<path id="path28" inkscape:connector-curvature="0" class="st1" d="M598.1,520.4v125.1h74.3c0,0,35.8-0.6,35.8-36.4
					c0,0,3.3-29.8-27-41.8l37.7-46.8h-32l-52,64.9h27.1c0,0,19.4,0.4,19.4,20c0,18.5-15.6,20-20.4,20h-36.6V520.4H598.1"/>
				<path id="path30" inkscape:connector-curvature="0" class="st1" d="M1055.3,688.9v124.6h74.3c0,0,35.8-0.6,35.8-36.4
					c0,0,3.1-29.5-27.1-41.6l37.7-46.6h-32l-52,64.5h27.1c0,0,19.3,0.4,19.3,20c0,18.7-15.6,20-20.4,20h-36.6V688.9H1055.3"/>
				<path id="path38" inkscape:connector-curvature="0" class="st1" d="M534.7,710.5h35.2v57.2h25v-78.9h-65.5
					c-9.8,0-57,11-57.4,60.8c-0.4,49.3,42.7,63.9,59.3,63.9h64.3v-22.1h-58.1c0,0-38.9,0-38.9-41
					C498.5,718.7,530.7,710.5,534.7,710.5"/>
				<path id="path40" inkscape:connector-curvature="0" class="st1" d="M909.2,645.4h26.2v-19.4l16.4,19.4h31
					c0,0,42.4,2.3,42.4-43.1v-82h-26.4v85.9c0,0-0.8,17.1-18.7,17.1h-44.7v-103h-26.2L909.2,645.4"/>
				<path id="path42" inkscape:connector-curvature="0" class="st1" d="M332,813.5h26v-19.1l16.4,19.1h31c0,0,42.7,2.3,42.7-43.1
					v-81.6h-26.4v85.5c0,0-1,17.1-18.9,17.1H358V688.9h-26L332,813.5"/>
				<path id="path44" inkscape:connector-curvature="0" class="st1" d="M270.4,688.9H296v124.6h-25.6V688.9z"/>
				<path id="path46" inkscape:connector-curvature="0" class="st1" d="M1186.4,520.6v21.2h72.4c0,0,14.4-2.7,14.4,14.8
					c0,17.5-10.8,15.6-14.8,15.6h-41.8c0,0-32.2-2.3-32.2,35.6c0,37.7,31.8,37.7,31.8,37.7h79.5v-22.1h-69.7c0,0-15.2,0-15.2-14.4
					c0-14.4,10.2-17.1,19.8-17.1h37.2c0,0,31.4,3.3,31.4-34.1s-32.2-37.2-32.2-37.2H1186.4"/>
				<path id="path48" inkscape:connector-curvature="0" class="st1" d="M130.2,688.9v21.2h72.4c0,0,14.4-2.7,14.4,14.8
					c0,17.5-10.8,15.6-14.8,15.6h-41.8c0,0-32.3-2.3-32.3,35.4c0,37.9,31.8,37.7,31.8,37.7h79.5v-22.1h-69.7c0,0-15.2,0-15.2-14.4
					c0-14.3,10.4-17.1,19.8-17.1h37.2c0,0,31.4,3.3,31.4-33.9c0-37.5-32.3-37.2-32.3-37.2H130.2"/>
				<path id="path4192" inkscape:connector-curvature="0" class="st1" d="M966.3,821.2c-37.5,0-68.1-30.6-68.1-68.2
					c0-37.8,30.6-68.1,68.1-68.1c37.9,0,68.1,30.4,68.1,68.1C1034.5,790.7,1004.3,821.2,966.3,821.2 M966.3,710
					c-23.5,0-42.6,19.2-42.6,43c0,23.5,19,43,42.6,43c23.7,0,43.1-19.6,43.1-43C1009.5,729.2,990,710,966.3,710"/>
				<path id="path4194" inkscape:connector-curvature="0" class="st1" d="M698.3,813.5h-27.5l-59.3-124.6h29.2l15.8,35.8H713
					l15.6-35.8h29.2 M663.7,743.1l20.8,51l20.6-50.9L663.7,743.1z"/>
				<path id="path4194-3" inkscape:connector-curvature="0" class="st1" d="M454.6,645.4h-27.5l-59.3-125.1H397l15.8,36h56.5
					l15.6-36h29.1 M420.1,574.7l20.8,51.2l20.6-51.1L420.1,574.7z"/>
				<path id="path4190" inkscape:connector-curvature="0" class="st1" d="M843.2,813.5H774V688.9h26.6v60.5l15.3-21.1h27.3
					c24,0,40,19.9,40,42.6C883.2,793.6,867.2,813.5,843.2,813.5 M842.3,751.4h-41.8v39.2h41.8c9.4,0,15.8-10.4,15.8-19.7
					C858.1,761.2,851.7,751.4,842.3,751.4"/>
			</g>
		</g>
	</g>
</g>
</svg>
