<?xml version="1.0" encoding="utf-8"?>
<!-- Generator: Adobe Illustrator 22.0.1, SVG Export Plug-In . SVG Version: 6.00 Build 0)  -->
<svg version="1.1" id="Layer_1" xmlns="http://www.w3.org/2000/svg" xmlns:xlink="http://www.w3.org/1999/xlink" x="0px" y="0px"
	 viewBox="0 0 1237 290.6" style="enable-background:new 0 0 1237 290.6;" xml:space="preserve">
<style type="text/css">
	.st0{fill:#FFFFFF;}
	.st1{fill:#004F75;}
	.st2{fill:#A52960;}
	.st3{fill:#EF412C;}
	.st4{fill:#12C3F4;}
	.st5{fill:#8FB73E;}
	.st6{fill:#FFC20E;}
</style>
<title>partner</title>
<path class="st0" d="M872.7,290.6h3.2c0.8,0,1.5-0.7,1.5-1.5V52.4c0-0.8-0.7-1.5-1.5-1.5h-3.2c-0.8,0-1.5,0.7-1.5,1.5v236.7
	C871.3,289.9,872,290.6,872.7,290.6z"/>
<g>
	<path class="st0" d="M563.4,99.7H524c-0.9,0-1.5,0.7-1.5,1.5v4.4c0,0.8,0.6,1.5,1.5,1.5h15.6v46c0,0.8,0.7,1.5,1.5,1.5h5.2
		c0.8,0,1.5-0.7,1.5-1.5v-46h15.6c0.9,0,1.5-0.7,1.5-1.5v-4.4C564.8,100.4,564.2,99.7,563.4,99.7z"/>
	<path class="st0" d="M40.9,99.7H1.5c-0.9,0-1.5,0.7-1.5,1.5v4.4c0,0.8,0.6,1.5,1.5,1.5h15.6v46c0,0.8,0.7,1.5,1.5,1.5h5.2
		c0.8,0,1.5-0.7,1.5-1.5v-46h15.6c0.9,0,1.5-0.7,1.5-1.5v-4.4C42.3,100.4,41.7,99.7,40.9,99.7z"/>
	<path class="st0" d="M149.1,234.5h-23.3v-46c0-0.8-0.7-1.5-1.5-1.5h-5.2c-0.9,0-1.5,0.7-1.5,1.5v51.8c0,0.8,0.6,1.5,1.5,1.5h30
		c0.9,0,1.5-0.7,1.5-1.5V236C150.6,235.2,150,234.5,149.1,234.5z"/>
	<path class="st0" d="M174.2,187H169c-0.8,0-1.5,0.7-1.5,1.5v51.8c0,0.8,0.7,1.5,1.5,1.5h5.2c0.8,0,1.5-0.7,1.5-1.5v-51.8
		C175.6,187.7,174.9,187,174.2,187z"/>
	<path class="st0" d="M60.2,101.2c0-0.8,0.7-1.5,1.5-1.5h5.2c0.9,0,1.5,0.7,1.5,1.5v21.8H97v-21.8c0-0.8,0.6-1.5,1.5-1.5h5.2
		c0.8,0,1.5,0.7,1.5,1.5v51.8c0,0.8-0.7,1.5-1.5,1.5h-5.2c-0.9,0-1.5-0.7-1.5-1.5v-22.6H68.3v22.6c0,0.8-0.6,1.5-1.5,1.5h-5.2
		c-0.8,0-1.5-0.7-1.5-1.5V101.2z"/>
	<path class="st0" d="M125.2,101.2c0-0.8,0.6-1.5,1.5-1.5H158c0.9,0,1.5,0.7,1.5,1.5v4.4c0,0.8-0.6,1.5-1.5,1.5h-24.7v16h20.9
		c0.8,0,1.5,0.7,1.5,1.5v4.4c0,0.9-0.7,1.5-1.5,1.5h-20.9v16.8H158c0.9,0,1.5,0.7,1.5,1.5v4.3c0,0.8-0.6,1.5-1.5,1.5h-31.3
		c-0.9,0-1.5-0.7-1.5-1.5V101.2z"/>
	<path class="st0" d="M179.2,101.2c0-0.8,0.6-1.5,1.5-1.5H202c9.4,0,17.1,7.4,17.1,16.8c0,7.2-4.8,13.2-11.6,15.9l10.7,19.9
		c0.5,1,0,2.3-1.3,2.3h-6.1c-0.6,0-1.1-0.4-1.3-0.7l-10.4-20.7h-11.8v20c0,0.8-0.7,1.5-1.5,1.5h-5.1c-0.9,0-1.5-0.7-1.5-1.5V101.2z
		 M201.4,126.4c5.1,0,9.6-4.3,9.6-9.7c0-5.1-4.5-9.3-9.6-9.3h-13.9v19H201.4z"/>
	<path class="st0" d="M237.7,101.2c0-0.8,0.6-1.5,1.5-1.5h31.3c0.9,0,1.5,0.7,1.5,1.5v4.4c0,0.8-0.6,1.5-1.5,1.5h-24.7v16h20.9
		c0.8,0,1.5,0.7,1.5,1.5v4.4c0,0.9-0.7,1.5-1.5,1.5h-20.9v16.8h24.7c0.9,0,1.5,0.7,1.5,1.5v4.3c0,0.8-0.6,1.5-1.5,1.5h-31.3
		c-0.9,0-1.5-0.7-1.5-1.5V101.2z"/>
	<path class="st0" d="M290.1,114.9c-0.5-0.5-0.3-1.3,0.3-1.9c0.8-0.6,2.7-2.5,2.7-4.6c0,0.2-0.9,0.2-1.6,0.2c-2.7,0-4.9-2.1-4.9-4.8
		c0-2.7,2.2-4.9,5-4.9c2.7,0,5.9,1.6,5.9,7.7c0,3.7-2.2,7.2-4.4,9.3c-0.7,0.6-1.3,0.6-1.9,0.1L290.1,114.9z"/>
	<path class="st0" d="M310.1,146.6c0.7-1,1.3-2.2,2-3.2c0.7-1,1.8-1.3,2.7-0.6c0.5,0.4,6.5,5.4,12.5,5.4c5.4,0,8.8-3.3,8.8-7.3
		c0-4.7-4.1-7.7-11.8-10.9c-8-3.4-14.2-7.5-14.2-16.6c0-6.1,4.7-14.5,17.1-14.5c7.8,0,13.7,4.1,14.5,4.6c0.6,0.4,1.3,1.5,0.5,2.7
		c-0.6,0.9-1.3,2-2,3c-0.6,1-1.6,1.5-2.7,0.8c-0.5-0.3-6-3.9-10.6-3.9c-6.6,0-8.8,4.1-8.8,7c0,4.5,3.4,7.2,9.9,9.9
		c9.1,3.7,16.8,8,16.8,17.5c0,8.1-7.3,14.8-17.5,14.8c-9.5,0-15.6-5-16.8-6.2C309.8,148.5,309.3,148,310.1,146.6z"/>
	<path class="st0" d="M391.6,100.4c0-0.8,0.7-1.4,1.5-1.4h2l34,39.3h0.1v-37c0-0.8,0.6-1.5,1.5-1.5h5c0.8,0,1.5,0.7,1.5,1.5v52.7
		c0,0.8-0.7,1.4-1.5,1.4h-2l-34-40.4h-0.1v38.1c0,0.8-0.6,1.5-1.5,1.5h-4.9c-0.8,0-1.5-0.7-1.5-1.5V100.4z"/>
	<path class="st0" d="M482.8,99c15.7,0,28.2,12.6,28.2,28.3c0,15.7-12.5,28.1-28.2,28.1c-15.7,0-28.1-12.4-28.1-28.1
		C454.7,111.6,467.2,99,482.8,99z M482.8,147.5c11.2,0,20.4-9.1,20.4-20.3c0-11.1-9.2-20.4-20.4-20.4c-11.1,0-20.3,9.3-20.3,20.4
		C462.5,138.4,471.7,147.5,482.8,147.5z"/>
	<path class="st0" d="M582.7,101.2c0-0.8,0.7-1.5,1.5-1.5h5.2c0.9,0,1.5,0.7,1.5,1.5v21.8h28.7v-21.8c0-0.8,0.6-1.5,1.5-1.5h5.2
		c0.8,0,1.5,0.7,1.5,1.5v51.8c0,0.8-0.7,1.5-1.5,1.5H621c-0.9,0-1.5-0.7-1.5-1.5v-22.6h-28.7v22.6c0,0.8-0.6,1.5-1.5,1.5h-5.2
		c-0.8,0-1.5-0.7-1.5-1.5V101.2z"/>
	<path class="st0" d="M650.7,101.2c0-0.8,0.7-1.5,1.5-1.5h5.2c0.8,0,1.5,0.7,1.5,1.5v51.8c0,0.8-0.7,1.5-1.5,1.5h-5.2
		c-0.8,0-1.5-0.7-1.5-1.5V101.2z"/>
	<path class="st0" d="M681.9,100.4c0-0.8,0.7-1.4,1.5-1.4h2l34,39.3h0.1v-37c0-0.8,0.6-1.5,1.5-1.5h5c0.8,0,1.5,0.7,1.5,1.5v52.7
		c0,0.8-0.7,1.4-1.5,1.4h-2l-34-40.4h-0.1v38.1c0,0.8-0.6,1.5-1.5,1.5h-4.9c-0.8,0-1.5-0.7-1.5-1.5V100.4z"/>
	<path class="st0" d="M774.7,99c7.5,0,13.7,2.7,19,7.3c0.6,0.6,0.7,1.6,0.1,2.2c-1.2,1.3-2.3,2.4-3.5,3.7c-0.6,0.7-1.3,0.6-2-0.1
		c-3.7-3.2-8.5-5.3-13.3-5.3c-11.1,0-19.6,9.4-19.6,20.4c0,10.9,8.5,20.3,19.6,20.3c6.5,0,11-2.4,11.7-2.7v-8.8H779
		c-0.9,0-1.5-0.6-1.5-1.4V130c0-0.9,0.6-1.5,1.5-1.5h14.2c0.8,0,1.4,0.7,1.4,1.5c0,6.3,0.1,12.7,0.1,18.9c0,0.4-0.3,1-0.6,1.3
		c0,0-8.1,5.2-19.4,5.2c-15.6,0-28.2-12.4-28.2-28.1C746.5,111.6,759.1,99,774.7,99z"/>
	<g>
		<path class="st0" d="M195.8,188.8c0-1,0.8-1.9,1.9-1.9h4.5c1,0,1.9,0.9,1.9,1.9v21.7l22.1-22.8c0.3-0.4,0.9-0.8,1.5-0.8h5.9
			c1.4,0,2.2,1.6,1.1,2.8l-22.6,23l24,26.4c0.6,0.8,0.2,2.6-1.4,2.6h-6.3c-0.8,0-1.3-0.3-1.4-0.5l-22.8-25.7v24.3
			c0,1-0.9,1.9-1.9,1.9h-4.5c-1.1,0-1.9-0.9-1.9-1.9V188.8z"/>
		<path class="st0" d="M251.6,188.5c0-0.8,0.6-1.5,1.5-1.5h31.3c0.9,0,1.5,0.7,1.5,1.5v4.4c0,0.8-0.6,1.5-1.5,1.5h-24.7v16h20.9
			c0.8,0,1.5,0.7,1.5,1.5v4.4c0,0.9-0.7,1.5-1.5,1.5h-20.9v16.8h24.7c0.9,0,1.5,0.7,1.5,1.5v4.3c0,0.8-0.6,1.5-1.5,1.5h-31.3
			c-0.9,0-1.5-0.7-1.5-1.5V188.5z"/>
	</g>
	<g>
		<path class="st0" d="M353.6,187c-0.2-0.5-0.9-0.9-1.3-0.9h-0.8c-0.4,0-1.1,0.4-1.3,0.9l-24,52.7c-0.5,1,0.2,2,1.3,2h4.9
			c0.9,0,1.6-0.6,1.8-1.2c1.6-3.6,3.2-7.1,4.8-10.7h25.6l4.9,10.7c0.3,0.7,0.9,1.2,1.8,1.2h4.9c1.2,0,1.8-1,1.3-2L353.6,187z
			 M342,223.1l9.6-21.4h0.4l9.6,21.4H342z"/>
		<path class="st0" d="M431.1,187h-5.2c-0.9,0-1.5,0.7-1.5,1.5v32.5c0,7.8-5.1,13.8-13.2,13.8c-8,0-13-6.1-13-13.9v-32.3
			c0-0.8-0.6-1.5-1.5-1.5h-5.2c-0.8,0-1.5,0.7-1.5,1.5v32.9c0,11.9,8.9,21.2,21.2,21.2c12.4,0,21.4-9.3,21.4-21.2v-32.9
			C432.6,187.7,431.9,187,431.1,187z"/>
		<path class="st0" d="M466.8,210.2c-6.5-2.7-9.9-5.4-9.9-9.9c0-2.9,2.3-7,8.8-7c4.5,0,10,3.6,10.6,3.9c1.1,0.7,2.1,0.2,2.7-0.8
			c0.6-0.9,1.3-2,2-3c0.8-1.2,0.2-2.3-0.5-2.7c-0.8-0.5-6.7-4.6-14.5-4.6c-12.5,0-17.1,8.4-17.1,14.5c0,9.1,6.3,13.2,14.2,16.6
			c7.8,3.2,11.8,6.2,11.8,10.9c0,4-3.4,7.3-8.8,7.3c-6,0-12.1-5-12.5-5.4c-0.9-0.7-2-0.4-2.7,0.6c-0.7,1-1.3,2.2-2,3.2
			c-0.8,1.3-0.2,1.9,0.5,2.5c1.3,1.2,7.3,6.2,16.8,6.2c10.2,0,17.5-6.6,17.5-14.8C483.6,218.2,475.8,213.9,466.8,210.2z"/>
		<path class="st0" d="M537.7,187h-39.4c-0.9,0-1.5,0.7-1.5,1.5v4.4c0,0.8,0.6,1.5,1.5,1.5H514v46c0,0.8,0.7,1.5,1.5,1.5h5.2
			c0.8,0,1.5-0.7,1.5-1.5v-46h15.6c0.9,0,1.5-0.7,1.5-1.5v-4.4C539.2,187.7,538.6,187,537.7,187z"/>
		<path class="st0" d="M594.9,203.7c0-9.3-7.7-16.8-17.1-16.8h-21.3c-0.9,0-1.5,0.7-1.5,1.5v51.8c0,0.8,0.6,1.5,1.5,1.5h5.1
			c0.8,0,1.5-0.7,1.5-1.5v-20h11.8l10.4,20.7c0.2,0.3,0.6,0.7,1.2,0.7h6.1c1.3,0,1.9-1.3,1.3-2.3l-10.7-19.9
			C590.1,216.9,594.9,210.9,594.9,203.7z M577.2,213.6h-13.9v-19h13.9c5.1,0,9.6,4.2,9.6,9.3C586.8,209.3,582.3,213.6,577.2,213.6z"
			/>
		<path class="st0" d="M635.6,187c-0.2-0.5-0.9-0.9-1.3-0.9h-0.8c-0.4,0-1.1,0.4-1.3,0.9l-24,52.7c-0.5,1,0.2,2,1.3,2h4.9
			c0.9,0,1.6-0.6,1.8-1.2c1.6-3.6,3.2-7.1,4.8-10.7h25.6l4.9,10.7c0.3,0.7,0.9,1.2,1.8,1.2h4.9c1.2,0,1.8-1,1.3-2L635.6,187z
			 M624,223.1l9.5-21.4h0.4l9.6,21.4H624z"/>
		<path class="st0" d="M706.8,234.5h-23.4v-46c0-0.8-0.7-1.5-1.5-1.5h-5.2c-0.9,0-1.5,0.7-1.5,1.5v51.8c0,0.8,0.6,1.5,1.5,1.5h30
			c0.9,0,1.5-0.7,1.5-1.5V236C708.3,235.2,707.7,234.5,706.8,234.5z"/>
		<path class="st0" d="M730.6,187h-5.2c-0.8,0-1.5,0.7-1.5,1.5v51.8c0,0.8,0.7,1.5,1.5,1.5h5.2c0.8,0,1.5-0.7,1.5-1.5v-51.8
			C732.1,187.7,731.4,187,730.6,187z"/>
		<path class="st0" d="M799.2,239.7l-23.9-52.7c-0.2-0.5-0.9-0.9-1.3-0.9h-0.8c-0.4,0-1.1,0.4-1.3,0.9l-24,52.7c-0.5,1,0.2,2,1.3,2
			h4.9c0.9,0,1.6-0.6,1.8-1.2c1.6-3.6,3.2-7.1,4.8-10.7h25.6l4.9,10.7c0.3,0.7,0.9,1.2,1.8,1.2h4.9
			C799,241.8,799.7,240.8,799.2,239.7z M763.7,223.1l9.5-21.4h0.4l9.6,21.4H763.7z"/>
	</g>
</g>
<g>
	<path class="st0" d="M1232.6,40.9c-3.9-1.4-17.6-3-23.4-3.6c-2.7-2.2-9.8-7.7-14-7.7c-0.9,0-1.7,0.2-2.5,0.6
		c-1.1,0.6-1.9,1.6-2.2,2.9c-0.4,1.7,0,3.6,1.4,6.3c-2.1-0.7-4.4-1.3-6.1-1.3c-2.3,0-3.5,1-4.2,1.8c-0.8,1-1.2,2.3-0.9,3.7
		c1.2,6,12,14.2,12,14.2c-0.1,0.1-0.1,0.3-0.2,0.4c-9.8,16.9-26,19.4-34.7,19.4c-0.4,0-2.5,0-3.2,0c-2.7,0-10.3,0.1-18.5,1.3
		l0.8-2.2c2.2-6.2,3.4-12.8,3.4-19.5c0-31.6-25.7-57.3-57.3-57.3c-31.6,0-57.3,25.7-57.3,57.3c0,23.8,15,45.4,37.3,53.7l1.2,0.5
		c-6.6,1.9-14.2,3.2-22.8,3.2c-7.6,0-15.4-1.1-23.2-3.2c-10.9-3-38.9-14.5-63.3-56.3c-3.1-5.4-5.6-5.8-7.4-5.8
		c-1.7,0-3.2,0.8-4.2,2.1c-1.4,1.9-1.5,4.6-0.4,8.1c1,3.1,10.3,31.1,32.1,51.7c22.9,21.7,51.6,33.9,87.8,37.4l0.1,0
		c9.1,0.6,16.3,1.6,22.1,2.8l-0.9,1.3c-2.8,3.8-13.6,10.4-24.1,16.9c-10.4,6.4-32.3,17.1-32.5,17.2c-1.1,0.5-27.6,13.4-36.7,21.4
		c-14.1,12.4-16,25.1-13.3,32.3c1.3,3.4,3.7,5.4,6.4,5.4c3.2,0,5.3-2.3,9.3-6.6c3.7-4,8.8-9.5,16.8-15.5
		c22-16.8,47.6-30.8,75.9-41.7c5.8-2.2,19-6.1,22.8-7.3l1.7-0.5c-0.9,5-4.2,9.3-9.5,12.6c-4.4,2.5-22.8,14-30.8,18.9
		c-1.8,1.1-10.4,6.2-13.7,8.1c-17.3,9.9-33.6,19.3-52.9,38.7c-11.4,11.4-12.5,26.7-9.7,33.5c1.6,4,4.5,4.4,5.6,4.4
		c3.8,0,6.9-3.4,13.9-10.8c3.9-4.2,8.7-9.3,14.7-15c22-20.8,52.4-38.5,76.9-52.7c11.2-6.5,20.8-12.1,27.8-16.9
		c11.9-8.1,27.5-22.1,35.3-43.1c8.8-8.9,16.8-19.7,24.3-32.7c0.7,4.5,1.1,9.3,0.5,12.1c-0.7,3.2-0.3,5.8,1.1,7.5c1,1.3,2.6,2,4.3,2
		c0,0,0,0,0,0c4.9,0,9.4-6.2,10.6-14.3c1.1-7.9,1.2-27.3,1.2-28.1c0.1-11.1,1.1-16.9,2.8-22.6c0.9-2.8,3.5-8.1,4.6-9.4
		c1.5-1.7,5.6-5.7,12.9-7.4l0.4-0.1c4.5-1.5,6.6-6.5,6.6-10.5C1237,44.9,1235.4,42,1232.6,40.9z"/>
	<g>
		<g>
			<g>
				<path class="st1" d="M1103.4,162c-1.3-1.2-5.3-4.2-16-6.7c-3.2,4.3-12.5,10.1-25.3,17.9c-10.7,6.5-32.9,17.4-32.9,17.4
					s-27,13-35.8,20.8c-18.1,15.8-13,30.5-9.6,30.5c3.1,0,8.4-9.8,23.6-21.3c21.7-16.5,47.1-30.8,76.9-42.3
					c6.1-2.4,19.8-6.4,23.2-7.4c-0.1-3.3-1.5-6.6-3.7-8.8L1103.4,162z"/>
				<path class="st1" d="M1193.9,53.8c2.1-5.5,2.8-8-0.6-9.4c-2.8-1.2-7.8-2.6-8.4-1.8C1183.9,43.9,1192.3,52.8,1193.9,53.8z"/>
				<path class="st2" d="M1167.1,130.7c-0.2-10.6-5.3-20.4-13.3-26.8c-0.9-0.7-1.8-1.4-2.8-2c-5-3.2-11-5.2-17.5-5.5
					c-19.1-0.7-35.7,14.6-36.1,34c-0.3,15,7.7,23,11,26.3c0.1,0.1,0.2,0.2,0.3,0.3c7.4,7.5,9.9,23.8-6,33.5
					c20.2-11.5,47.1-24,61.3-40.7c0,0,0-0.1,0-0.1C1164.6,148.2,1167.3,139.5,1167.1,130.7z"/>
				<path class="st3" d="M1086.9,105.7c-12,7.6-36.8,18.8-69.7,9.8c-39.8-10.8-64.3-55.8-66.1-58.8c-3-5-5.9-3.8-4.2,1.7
					c1.8,5.5,11.1,31.1,31,49.9c19.6,18.5,46.5,32.5,85.3,36.3c32.8,2.2,42.4,9.4,45.2,12.1c-3.4-3.3-11.3-11.3-11-26.3
					c0.4-19.4,16.9-34.7,36.1-34c6.6,0.2,12.5,2.2,17.5,5.5c0,0-0.1-0.1-0.1-0.1C1138.6,93.3,1110.8,91,1086.9,105.7z"/>
				<path class="st4" d="M1102.8,190.6c-5.2,3-32.8,20.1-33.8,20.8c0,0,0,0,0,0c-21,12.4-39.8,21.2-62.7,44.2
					c-12.9,12.9-10.5,30.9-7,30.9c3.4,0,11.2-11.1,25.7-24.7c32.5-30.7,83.3-54.9,105.2-70c13.9-9.5,27.4-23.3,34.1-41.9
					C1149.8,166.5,1122.9,179,1102.8,190.6z"/>
				<path class="st3" d="M1231.2,44.8c-3-1.1-15-2.6-23.6-3.5c-3.4-3-11.1-8.3-12.8-7.4c-1.7,1,5.4,11,6.2,13
					c-0.2,1.6-1.3,7.3-4.9,13.6c-13.4,23.1-37.3,21.4-39.9,21.5c9.3,0.2,35.4,0.9,53.7-14.2c1.4-1.2,2.9-2.5,4.3-3.9
					c1.4-1.4,6-6.5,14.9-8.6C1233,53.9,1234.2,45.9,1231.2,44.8z"/>
				<path class="st5" d="M1194,107.2C1193.9,107.2,1193.9,107.2,1194,107.2c0.7,4.2,4,18.3,2.6,25.2c-1.7,8.3,6.3,4.9,7.9-6.2
					c1.1-7.7,1.2-27.6,1.2-27.6c0.1-12.2,1.4-18.4,3-24C1205.1,82.8,1200.4,94.5,1194,107.2z"/>
				<path class="st6" d="M1085.6,96.7c8.9-6.1,22.2-15.3,41.1-20c2.1-0.5,4.2-1,6.4-1.3c2-5.6,3.1-11.7,3.1-18.1
					c0-29.4-23.8-53.2-53.2-53.2c-29.4,0-53.2,23.8-53.2,53.2c0,22.8,14.4,42.3,34.6,49.9c7.4-2.3,13.5-5.5,18-8.3
					C1083.4,98.2,1084.5,97.5,1085.6,96.7z"/>
			</g>
		</g>
		<path class="st6" d="M1209.9,67.7c-18.4,15.1-44.4,14.4-53.7,14.2c-3.6-0.1-16.7,0.1-27.5,2.8c-19.8,4.9-33.1,15.3-41.8,21.1
			c24-14.8,51.7-12.4,64-3.9c0,0,0.1,0.1,0.1,0.1c1,0.6,1.9,1.3,2.8,2c8,6.4,13.1,16.1,13.3,26.8c0.2,8.8-2.5,17.5-3,19
			c0,0,0,0.1,0,0.1c12.8-12.8,22.5-28.3,29.8-42.6c6.5-12.7,11.2-24.4,14.6-32.6c2.3-5.5,4.1-9.3,5.6-10.9
			C1212.8,65.1,1211.3,66.4,1209.9,67.7z"/>
	</g>
</g>
</svg>
