<?xml version="1.0" encoding="utf-8"?>
<!-- Generator: Adobe Illustrator 22.0.1, SVG Export Plug-In . SVG Version: 6.00 Build 0)  -->
<svg version="1.1" id="Layer_1" xmlns="http://www.w3.org/2000/svg" xmlns:xlink="http://www.w3.org/1999/xlink" x="0px" y="0px"
	 viewBox="0 0 476.2 62.4" style="enable-background:new 0 0 476.2 62.4;" xml:space="preserve">
<style type="text/css">
	.st0{fill:#FFFFFF;}
	.st1{fill:#FBB034;}
</style>
<title>trailfinders-logo</title>
<path class="st0" d="M0,6h8.9L5.3,33.4h8.2L17.1,6c1.9,0,3,0,3.6,0c4-0.2,6.8-1.3,8.5-3.4H0.5L0,6"/>
<path class="st0" d="M40.9,16.8l1.4-10.9h4.2c0.9,0,1.8,0.3,2.6,0.9c0.7,0.5,1.2,1.4,1.2,2.2c0,0.2,0,0.3,0,0.5l-0.5,3.6
	c-0.1,1.1-0.7,2-1.6,2.6c-0.9,0.6-1.9,1-3,1L40.9,16.8 M56.2,15.8c1.2-1.3,2-2.9,2.2-4.6l0.2-1.9c0-0.3,0.1-0.5,0.1-0.8
	c0-1.8-0.9-3.5-2.5-4.5c-1.5-1-3.3-1.5-5.1-1.5H34.3l-4,30.9h8.4l1.8-13.9l11.4,12.9c0.9,0.9,2.2,1.4,3.5,1.3c0.8,0,1.6-0.1,2.3-0.4
	L45.9,19.7c1.3,0,2.6-0.1,3.8-0.2C52.2,19,54.5,17.7,56.2,15.8L56.2,15.8z"/>
<path class="st0" d="M66.8,33.4h-4L77.3,2.6H87l5.8,30.9h-8.6L79.4,6.1c-1.8,4.1-3.9,8.9-6.5,14.3H81c-2.6,2.4-6.1,3.6-9.6,3.3
	L66.8,33.4"/>
<polyline class="st0" points="106.1,2.6 114.3,2.6 110.2,33.4 101.9,33.4 106.1,2.6 "/>
<path class="st0" d="M124.4,2.6h8.4l-3.6,27.2h12.4c-1.7,2.3-4.4,3.6-7.2,3.7h-14.1L124.4,2.6"/>
<path class="st0" d="M148.1,33.4l4.1-30.8h20.6c-1.7,2.1-4.5,3.2-8.5,3.4c-0.8,0-2.2,0-4.2,0l-1.4,10.8h10.8l-0.6,3.6h-10.8l-1.8,13
	L148.1,33.4"/>
<polyline class="st0" points="180.6,2.6 188.9,2.6 184.8,33.4 176.5,33.4 180.6,2.6 "/>
<polyline class="st0" points="193.9,33.4 198,2.6 201.7,2.6 217.8,19.7 220,2.6 223.7,2.6 219.6,33.4 216,33.4 199.7,17 197.6,33.4 
	193.9,33.4 "/>
<path class="st0" d="M236.6,29.7h4.3c1.1,0,2.1-0.3,3-0.9c0.9-0.5,1.6-1.4,1.7-2.5l2.2-17c0.2-1-0.3-2-1.1-2.5
	C246,6.3,245,5.9,244,6h-4.2L236.6,29.7 M227.8,33.4l4.1-30.9h16.9c1.8,0,3.6,0.5,5.1,1.6c1.6,1,2.5,2.7,2.5,4.5
	c0,0.3,0,0.5-0.1,0.8l-2.2,17.2c-0.3,2.1-1.6,3.9-3.4,5c-1.8,1.2-3.9,1.8-6,1.8L227.8,33.4z"/>
<path class="st0" d="M270.4,29.7h10.9l-0.5,3.7h-19.2l4.1-30.8h20.6c-0.5,0.6-1.1,1.2-1.8,1.6c-1.7,1-4.4,1.6-8.2,1.8
	c-0.5,0-1.4,0-2.7,0l-1.4,10.8H283l-0.6,3.6h-10.8L270.4,29.7"/>
<path class="st0" d="M300.7,16.8l1.4-10.9h4.2c0.9,0,1.8,0.3,2.6,0.9c0.7,0.5,1.2,1.4,1.2,2.2c0,0.2,0,0.3,0,0.5l-0.5,3.6
	c-0.2,1.1-0.7,2-1.6,2.6c-0.9,0.6-1.9,1-3,1L300.7,16.8 M316,15.8c1.2-1.3,2-2.9,2.2-4.6l0.2-1.9c0-0.3,0.1-0.5,0.1-0.8
	c0-1.8-0.9-3.5-2.5-4.5c-1.5-1-3.3-1.5-5.1-1.5h-16.9l-4,30.9h8.4l1.7-13.9l11.4,12.9c0.9,0.9,2.2,1.4,3.5,1.3
	c0.8,0,1.6-0.1,2.3-0.4l-11.9-13.8c1.3,0,2.6-0.1,3.9-0.2C311.9,18.9,314.2,17.7,316,15.8L316,15.8z"/>
<path class="st0" d="M328.5,26.8c0,0.2,0,0.4,0,0.5c0,0.9,0.5,1.8,1.4,2.1c0.8,0.4,1.8,0.6,2.7,0.6c3,0,4.7-1.2,5-3.5
	c0.1-0.9-0.3-1.8-1-2.4l-8.5-8.1c-1.4-1.3-2.1-3.2-2-5.1c0-0.6,0.1-1.2,0.2-1.7c0.1-0.6,0.4-1.2,0.6-1.8c0.7-1.3,1.7-2.4,3-3.1
	c1.1-0.6,2.3-1,3.6-1.3c1.2-0.3,2.5-0.5,3.8-0.5h3.4c4.5,0,7.2,1.6,8,4.7l-4.4,2.2c-0.3-1-0.9-1.9-1.7-2.6C341.9,6.2,341,5.9,340,6
	c-1.2-0.1-2.5,0.1-3.6,0.6c-0.7,0.6-1.2,1.4-1.2,2.4c-0.1,1.1,0.4,2.2,1.2,2.8l8.5,8.1c0.6,0.6,1,1.2,1.4,1.9
	c0.4,0.7,0.6,1.5,0.7,2.2c0,1-0.2,1.9-0.4,2.8c-0.5,1.9-1.8,3.6-3.5,4.6c-1.2,0.7-2.5,1.1-3.9,1.4c-1.3,0.3-2.7,0.5-4.1,0.5
	l-2.8-0.1c-1.7,0-3.4-0.2-5.1-0.8c-1.6-0.7-2.7-2.1-3-3.8l4.4-2.1"/>
<path class="st0" d="M476.1,31.2c0,17.2-26.6,31.2-59.4,31.2s-59.4-14-59.4-31.2S383.9,0,416.7,0S476.1,14,476.1,31.2z"/>
<path class="st1" d="M382.5,19.6l2.2-0.1l8.2,9.2c9.8-1.1,19.6-1.6,29.5-1.6L419,12.4h-49.8c-6.7,4.7-11,10.4-11.8,16.6h29.9
	L382.5,19.6L382.5,19.6z"/>
<path class="st1" d="M416.2,0c-16.4,0.1-31.3,3.6-42,9.3h44L416.2,0L416.2,0z"/>
<path class="st1" d="M392.8,32.6l-8.2,9.1h-2.1l4.8-9.6h-30c0.4,6.6,4.7,12.8,11.8,17.7h49.7l3.5-15.5
	C412.4,34.2,402.6,33.7,392.8,32.6z"/>
<path class="st1" d="M415.9,62.4l2.1-9.5h-44C384.6,58.6,399.4,62.2,415.9,62.4L415.9,62.4z"/>
<path class="st1" d="M419.9,0.1l12.7,27.2c7.9-0.4,21.5,1.3,21,3.4v0.2c0.4,2.1-13.1,3.8-21.1,3.3l-13.3,28.1
	c31.7-0.7,57-14.4,57-31.1S451.3,0.9,419.9,0.1L419.9,0.1z"/>
<path class="st0" d="M5.2,59.3H3.6V47.7H0.1v-1.3h8.5v1.3H5.2L5.2,59.3z"/>
<path class="st0" d="M29.6,51.6v-5.2h1.6v12.9h-1.6V53h-7.4v6.3h-1.6V46.4h1.6v5.2H29.6z"/>
<path class="st0" d="M44.4,46.4h7.4v1.3H46v3.9h5.6v1.3h-5.7V58h5.8v1.3h-7.4L44.4,46.4z"/>
<path class="st0" d="M84.7,59.3h-1.6V47.7h-3.5v-1.3h8.6v1.3h-3.5L84.7,59.3z"/>
<path class="st0" d="M101.7,59.3h-1.6V46.4h2.1c2.7,0,5.2,0.6,5.2,3.6c0,1.9-1.5,3.5-3.5,3.6c0,0-0.1,0-0.1,0l4.6,5.8h-2l-4.3-5.7
	h-0.4L101.7,59.3z M101.7,52.4h0.5c1.8,0,3.6-0.3,3.6-2.3s-1.7-2.3-3.6-2.3h-0.5L101.7,52.4z"/>
<path class="st0" d="M122.8,55.6l-1.7,3.7h-1.8l6.6-13.5l6.4,13.5h-1.8l-1.7-3.7H122.8z M125.9,49.1l-2.4,5.2h4.8L125.9,49.1z"/>
<path class="st0" d="M146.8,56.2l4.1-9.8h1.7l-5.8,13.7L141,46.4h1.7L146.8,56.2z"/>
<path class="st0" d="M164.4,46.4h7.4v1.3H166v3.9h5.7v1.3H166V58h5.8v1.3h-7.4L164.4,46.4z"/>
<path class="st0" d="M186.4,58h4v1.3h-5.6V46.4h1.6L186.4,58z"/>
<path class="st0" d="M218.3,46.4h7.4v1.3h-5.8v3.9h5.7v1.3h-5.7V58h5.8v1.3h-7.4L218.3,46.4z"/>
<path class="st0" d="M237.9,46.4h1.8l2.9,4.9l2.9-4.9h1.8l-3.9,6.2l4.2,6.7h-1.8l-3.3-5.3l-3.3,5.3h-1.8l4.2-6.7L237.9,46.4z"/>
<path class="st0" d="M261.3,59.3h-1.6V46.4h2.4c1.2-0.1,2.5,0.1,3.5,0.7c1.6,1,2.1,3.2,1.1,4.8c-0.2,0.3-0.5,0.6-0.8,0.9
	c-1,0.6-2.2,0.9-3.4,0.9h-1.2L261.3,59.3z M261.3,52.3h1.1c1.8,0,3.3-0.5,3.3-2.3c0-2.1-1.9-2.3-3.7-2.3h-0.6V52.3z"/>
<path class="st0" d="M279.5,46.4h7.4v1.3h-5.8v3.9h5.7v1.3h-5.7V58h5.8v1.3h-7.4L279.5,46.4z"/>
<path class="st0" d="M301.5,59.3h-1.6V46.4h2.1c2.7,0,5.2,0.6,5.2,3.6c0,1.9-1.5,3.5-3.5,3.6c0,0-0.1,0-0.1,0l4.6,5.8h-2l-4.3-5.7
	h-0.4L301.5,59.3z M301.5,52.4h0.5c1.8,0,3.6-0.3,3.6-2.3s-1.7-2.3-3.6-2.3h-0.5L301.5,52.4z"/>
<path class="st0" d="M323.9,59.3h-1.6V47.7h-3.5v-1.3h8.5v1.3h-3.5L323.9,59.3z"/>
<path class="st0" d="M345.8,48.9c-0.5-0.9-1.4-1.4-2.5-1.4c-1.2-0.1-2.3,0.8-2.4,2c0,0,0,0,0,0c0,1.1,1.3,1.6,2.2,2l1,0.4
	c1.9,0.7,3.4,1.6,3.4,3.6c-0.1,2.3-2.1,4.1-4.4,4c0,0,0,0-0.1,0c-2.1,0.1-4-1.3-4.5-3.3l1.6-0.4c0.2,1.4,1.5,2.4,2.9,2.4
	c1.5,0.1,2.8-1,2.9-2.5c0-1.5-1.3-2-2.6-2.6l-0.9-0.3c-1.7-0.7-3.1-1.5-3.1-3.3c0-2,1.9-3.3,4-3.3c1.5,0,2.9,0.7,3.7,2L345.8,48.9z"
	/>
</svg>
